<svg xmlns="http://www.w3.org/2000/svg" version="1.1" xmlns:xlink="http://www.w3.org/1999/xlink" xmlns:svgjs="http://svgjs.dev/svgjs" width="2000" height="777" viewBox="0 0 2000 777"><g transform="matrix(1,0,0,1,-1.2121212121212466,-0.47962332515271555)"><svg viewBox="0 0 396 154" data-background-color="#7c4e29" preserveAspectRatio="xMidYMid meet" height="777" width="2000" xmlns="http://www.w3.org/2000/svg" xmlns:xlink="http://www.w3.org/1999/xlink"><g id="tight-bounds" transform="matrix(1,0,0,1,0.2400000000000091,0.09506047885909652)"><svg viewBox="0 0 395.52 153.8098790422818" height="153.8098790422818" width="395.52"><g><svg viewBox="0 0 660.7265998001346 256.9434627712299" height="153.8098790422818" width="395.52"><g transform="matrix(1,0,0,1,263.2289998001348,62.26829230511861)"><svg viewBox="0 0 397.4975999999999 132.4068781609927" height="132.4068781609927" width="397.4975999999999"><g><svg viewBox="0 0 397.4975999999999 132.4068781609927" height="132.4068781609927" width="397.4975999999999"><g><rect width="397.4975999999999" height="6.713834506051501" x="0" y="82.35737803193776" fill="#ffffff" opacity="1" stroke-width="0" stroke="transparent" fill-opacity="1" class="rect-o-0" data-fill-palette-color="primary" rx="1%" id="o-0" data-palette-color="#ffffff"></rect></g><g transform="matrix(1,0,0,1,0.9887999999999693,0)"><svg viewBox="0 0 395.52 74.44841068187709" height="74.44841068187709" width="395.52"><g transform="matrix(1,0,0,1,0,0)"><svg width="395.52" viewBox="1.4500000476837158 -35.75 192.83999633789062 36.29999923706055" height="74.44841068187709" data-palette-color="#ffffff"><path d="M27.2-31.7L25.1-28.05Q24.5-28.75 23.5-29.4 22.5-30.05 21.25-30.58 20-31.1 18.53-31.43 17.05-31.75 15.45-31.75L15.45-31.75Q11.35-31.75 9.4-30.2 7.45-28.65 7.45-25.95L7.45-25.95Q7.45-24.05 8.45-22.95 9.45-21.85 11.53-21.15 13.6-20.45 16.8-19.7L16.8-19.7Q20.5-18.9 23.2-17.75 25.9-16.6 27.35-14.68 28.8-12.75 28.8-9.55L28.8-9.55Q28.8-7 27.83-5.13 26.85-3.25 25.1-2.02 23.35-0.8 21-0.23 18.65 0.35 15.9 0.35L15.9 0.35Q13.2 0.35 10.63-0.23 8.05-0.8 5.75-1.9 3.45-3 1.45-4.65L1.45-4.65 3.6-8.45Q4.4-7.6 5.68-6.78 6.95-5.95 8.58-5.25 10.2-4.55 12.1-4.13 14-3.7 16-3.7L16-3.7Q19.8-3.7 21.9-5.08 24-6.45 24-9.1L24-9.1Q24-11.1 22.83-12.3 21.65-13.5 19.35-14.3 17.05-15.1 13.75-15.9L13.75-15.9Q10.15-16.8 7.7-17.88 5.25-18.95 4.03-20.7 2.8-22.45 2.8-25.25L2.8-25.25Q2.8-28.65 4.45-31 6.1-33.35 9-34.55 11.9-35.75 15.55-35.75L15.55-35.75Q17.95-35.75 20.03-35.25 22.1-34.75 23.9-33.85 25.7-32.95 27.2-31.7L27.2-31.7ZM30.25 0L44.8-35.5 48.6-35.5 63.1 0 58.3 0 54.1-10.4 39.2-10.4 35.05 0 30.25 0ZM40.1-13.9L53.1-13.9 46.7-30.3 40.1-13.9ZM72.34 0L67.84 0 67.84-35.5 72.34-35.5 72.34 0ZM106.44-35.5L106.44-31.5 94.19-31.5 94.19 0 89.69 0 89.69-31.5 77.44-31.5 77.44-35.5 106.44-35.5ZM116.04-4L135.64-4 135.64 0 111.54 0 111.54-35.5 135.19-35.5 135.19-31.5 116.04-31.5 116.04-20 132.69-20 132.69-16.25 116.04-16.25 116.04-4ZM138.14-1.65L139.29-5.3Q140.24-4.65 141.91-4.08 143.59-3.5 145.89-3.5L145.89-3.5Q148.24-3.5 149.74-4.28 151.24-5.05 152.04-6.63 152.84-8.2 153.14-10.65 153.44-13.1 153.44-16.45L153.44-16.45 153.44-35.5 157.94-35.5 157.94-17.45Q157.94-13.5 157.54-10.2 157.14-6.9 155.94-4.48 154.74-2.05 152.36-0.75 149.99 0.55 146.04 0.55L146.04 0.55Q143.54 0.55 141.64 0 139.74-0.55 138.14-1.65L138.14-1.65ZM161.44 0L175.99-35.5 179.79-35.5 194.29 0 189.49 0 185.29-10.4 170.39-10.4 166.24 0 161.44 0ZM171.29-13.9L184.29-13.9 177.89-30.3 171.29-13.9Z" opacity="1" transform="matrix(1,0,0,1,0,0)" fill="#ffffff" class="undefined-text-0" data-fill-palette-color="primary" id="text-0"></path></svg></g></svg></g><g transform="matrix(1,0,0,1,0,96.98017988804992)"><svg viewBox="0 0 395.52 35.426698272942765" height="35.426698272942765" width="395.52"><g transform="matrix(1,0,0,1,0,0)"><svg width="395.52" viewBox="3.490000009536743 -37.9900016784668 432.57000732421875 38.75" height="35.426698272942765" data-palette-color="#ffffff"><path d="M3.49-32.79L3.49-37.01 18.46-37.01Q20.95-37.01 23.03-36.36 25.12-35.72 26.65-34.46 28.17-33.2 29.02-31.32 29.86-29.44 29.86-27L29.86-27Q29.86-24.98 29.03-23.18 28.2-21.39 26.68-20.04 25.17-18.7 23.06-17.92 20.95-17.14 18.36-17.14L18.36-17.14 11.79-17.14 11.79-4.2 15.5-4.2 15.5 0 3.49 0 3.49-4.2 7.01-4.2 7.01-32.79 3.49-32.79ZM17.85-32.79L11.79-32.79 11.79-21.14 18.46-21.14Q19.85-21.14 21.01-21.52 22.17-21.9 23.01-22.63 23.85-23.36 24.33-24.46 24.8-25.56 24.8-27L24.8-27Q24.8-29.74 23.14-31.26 21.48-32.79 17.85-32.79L17.85-32.79ZM56.01-12.06L37.79-12.06Q37.79-10.99 37.95-10.1 38.11-9.2 38.4-8.4L38.4-8.4Q39.31-5.96 41.3-4.72 43.29-3.49 45.8-3.49L45.8-3.49Q47.78-3.49 49.65-4.04 51.51-4.59 53.56-5.76L53.56-5.76 55.4-2.66Q52.91-0.95 50.39-0.12 47.88 0.71 45.17 0.71L45.17 0.71Q42.6 0.71 40.42-0.15 38.23-1 36.66-2.69 35.08-4.37 34.19-6.88 33.3-9.4 33.3-12.74L33.3-12.74Q33.3-15.45 34.06-17.86 34.81-20.26 36.32-22.06 37.82-23.85 40.04-24.9 42.26-25.95 45.21-25.95L45.21-25.95Q48.07-25.95 49.99-25.09 51.9-24.22 53.11-22.79 54.32-21.36 54.94-19.53 55.57-17.7 55.81-15.8L55.81-15.8Q55.93-14.87 55.97-13.92 56.01-12.96 56.01-12.06L56.01-12.06ZM44.9-22.14L44.9-22.14Q43.31-22.14 42.13-21.69 40.94-21.24 40.11-20.4 39.28-19.56 38.78-18.33 38.28-17.11 38.04-15.6L38.04-15.6 51.15-15.6Q51.05-17.02 50.7-18.21 50.34-19.41 49.61-20.29 48.88-21.17 47.73-21.66 46.58-22.14 44.9-22.14ZM80.37-25.44L80.37-19.95 75.73-19.95 75.73-21.51Q74.93-21.51 74.08-21.2 73.24-20.9 72.51-20.28 71.78-19.65 71.23-18.69 70.68-17.72 70.43-16.41L70.43-16.41 70.43-4.2 74.73-4.2 74.73 0 62.18 0 62.18-4.2 65.67-4.2 65.7-21.09 62.18-21.09 62.18-25.29 70.26-25.29 70.26-21.8Q70.7-22.58 71.25-23.25 71.8-23.93 72.47-24.43 73.14-24.93 73.96-25.21 74.78-25.49 75.73-25.49L75.73-25.49Q77-25.49 78.13-25.49 79.25-25.49 80.37-25.44L80.37-25.44ZM100.22-18.51Q100.22-19.53 99.74-20.25 99.27-20.97 98.51-21.42 97.75-21.88 96.83-22.08 95.9-22.29 95.02-22.29L95.02-22.29Q94.04-22.29 93.23-22.07 92.41-21.85 91.82-21.44 91.24-21.02 90.91-20.42 90.58-19.82 90.58-19.09L90.58-19.09Q90.58-17.82 91.35-17.08 92.11-16.33 93.92-15.7L93.92-15.7 98.78-13.99Q101.9-12.94 103.34-11.13 104.79-9.33 104.79-6.81L104.79-6.81Q104.79-5.13 104.11-3.72 103.44-2.32 102.21-1.33 100.98-0.34 99.24 0.21 97.51 0.76 95.39 0.76L95.39 0.76Q92.43 0.76 90.58-0.2 88.72-1.15 87.72-2.71L87.72-2.71 85.18-2.71 85.18-6.91 90.23-6.91Q90.23-5.86 90.69-5.11 91.14-4.37 91.88-3.91 92.63-3.44 93.57-3.22 94.51-3 95.48-3L95.48-3Q96.44-3 97.31-3.23 98.19-3.47 98.86-3.92 99.54-4.37 99.93-5 100.32-5.64 100.32-6.45L100.32-6.45Q100.32-7.67 99.52-8.52 98.73-9.38 96.83-10.06L96.83-10.06 91.99-11.87Q89.04-12.92 87.61-14.54 86.18-16.16 86.18-18.6L86.18-18.6Q86.18-20.21 86.78-21.58 87.38-22.95 88.51-23.94 89.65-24.93 91.28-25.49 92.92-26.05 95.02-26.05L95.02-26.05Q97.73-26.05 99.56-25.29 101.39-24.54 102.86-22.71L102.86-22.71 105.22-22.71 105.22-18.51 100.22-18.51ZM109.52-12.65L109.52-12.65Q109.55-15.65 110.49-18.12 111.43-20.58 113.11-22.35 114.79-24.12 117.11-25.07 119.43-26.03 122.22-26.03L122.22-26.03Q125.02-26.03 127.36-25.07 129.69-24.12 131.35-22.38 133.01-20.63 133.94-18.16 134.86-15.7 134.86-12.7L134.86-12.7Q134.86-9.74 133.94-7.26 133.01-4.79 131.35-3 129.69-1.22 127.36-0.23 125.02 0.76 122.22 0.76L122.22 0.76Q119.36 0.76 117.04-0.22 114.72-1.2 113.06-2.97 111.4-4.74 110.47-7.2 109.55-9.67 109.52-12.65ZM114.33-12.65L114.33-12.65Q114.33-10.47 114.95-8.72 115.58-6.96 116.66-5.73 117.75-4.49 119.18-3.82 120.61-3.15 122.22-3.15L122.22-3.15Q123.9-3.15 125.35-3.81 126.81-4.47 127.88-5.7 128.96-6.93 129.57-8.69 130.18-10.45 130.18-12.65L130.18-12.65Q130.18-14.94 129.57-16.72 128.96-18.51 127.89-19.7 126.83-20.9 125.37-21.51 123.9-22.12 122.22-22.12L122.22-22.12Q120.61-22.12 119.18-21.51 117.75-20.9 116.66-19.7 115.58-18.51 114.95-16.72 114.33-14.94 114.33-12.65ZM156.42 0L156.42-4.2 159.99-4.2 159.99-15.75Q159.99-18.65 158.51-20.15 157.03-21.66 154.27-21.66L154.27-21.66Q152.69-21.66 151.07-20.9 149.46-20.14 148.02-19.02L148.02-19.02 148.02-4.2 151.59-4.2 151.59 0 139.77 0 139.77-4.2 143.29-4.2 143.29-21.09 139.77-21.09 139.77-25.29 147.83-25.29 147.83-22.31 147.88-22.31Q148.68-23.02 149.6-23.66 150.51-24.29 151.51-24.76 152.51-25.22 153.6-25.49 154.69-25.76 155.88-25.76L155.88-25.76Q157.91-25.76 159.55-25.2 161.18-24.63 162.33-23.49 163.48-22.34 164.1-20.54 164.72-18.75 164.72-16.31L164.72-16.31 164.72-4.2 168.24-4.2 168.24 0 156.42 0ZM187.99 0L187.99-2.34Q186.55-1 184.8-0.15 183.06 0.71 180.83 0.71L180.83 0.71Q178.98 0.71 177.43 0.12 175.88-0.46 174.76-1.48 173.63-2.49 173.01-3.83 172.39-5.18 172.39-6.69L172.39-6.69Q172.39-8.3 172.86-9.55 173.34-10.79 174.13-11.71 174.93-12.62 175.99-13.24 177.05-13.87 178.21-14.25 179.37-14.62 180.58-14.78 181.79-14.94 182.89-14.94L182.89-14.94Q184.64-14.94 185.84-14.83 187.04-14.72 188.01-14.53L188.01-14.53 188.04-16.6Q188.04-17.94 187.65-18.93 187.26-19.92 186.55-20.57 185.84-21.22 184.85-21.53 183.86-21.85 182.64-21.85L182.64-21.85Q181.49-21.85 180.44-21.69 179.39-21.53 178.48-21.28 177.56-21.02 176.79-20.69 176.03-20.36 175.49-20L175.49-20 174-23.14Q174.9-23.73 175.98-24.23 177.05-24.73 178.23-25.09 179.42-25.44 180.65-25.65 181.88-25.85 183.08-25.85L183.08-25.85Q185.28-25.85 187.04-25.33 188.79-24.8 190.01-23.71 191.24-22.61 191.89-20.91 192.55-19.21 192.55-16.85L192.55-16.85 192.53-4.2 195.34-4.2 195.34 0 187.99 0ZM181.84-3.1L181.84-3.1Q182.74-3.1 183.64-3.32 184.55-3.54 185.35-3.92 186.16-4.3 186.84-4.8 187.52-5.3 187.99-5.83L187.99-5.83 188.01-11.55 182.74-11.55Q181.42-11.55 180.33-11.25 179.25-10.96 178.45-10.4 177.66-9.84 177.22-9.01 176.78-8.18 176.78-7.1L176.78-7.1Q176.78-6.1 177.15-5.36 177.51-4.61 178.19-4.11 178.86-3.61 179.79-3.36 180.71-3.1 181.84-3.1ZM200.27-33.79L200.27-37.99 208.47-37.99 208.47-4.2 212.28-4.2 212.28 0 200.27 0 200.27-4.2 203.93-4.2 203.93-33.79 200.27-33.79ZM214.28 0Q214.28 0 214.28 0ZM228.71-32.79L228.71-37.01 243.68-37.01Q246.17-37.01 248.25-36.36 250.34-35.72 251.87-34.46 253.39-33.2 254.24-31.32 255.08-29.44 255.08-27L255.08-27Q255.08-24.98 254.25-23.18 253.42-21.39 251.9-20.04 250.39-18.7 248.28-17.92 246.17-17.14 243.58-17.14L243.58-17.14 237.01-17.14 237.01-4.2 240.72-4.2 240.72 0 228.71 0 228.71-4.2 232.23-4.2 232.23-32.79 228.71-32.79ZM243.07-32.79L237.01-32.79 237.01-21.14 243.68-21.14Q245.07-21.14 246.23-21.52 247.39-21.9 248.23-22.63 249.07-23.36 249.55-24.46 250.02-25.56 250.02-27L250.02-27Q250.02-29.74 248.36-31.26 246.7-32.79 243.07-32.79L243.07-32.79ZM258.37-12.65L258.37-12.65Q258.4-15.65 259.34-18.12 260.28-20.58 261.96-22.35 263.65-24.12 265.97-25.07 268.29-26.03 271.07-26.03L271.07-26.03Q273.88-26.03 276.21-25.07 278.54-24.12 280.2-22.38 281.86-20.63 282.79-18.16 283.72-15.7 283.72-12.7L283.72-12.7Q283.72-9.74 282.79-7.26 281.86-4.79 280.2-3 278.54-1.22 276.21-0.23 273.88 0.76 271.07 0.76L271.07 0.76Q268.21 0.76 265.89-0.22 263.57-1.2 261.91-2.97 260.25-4.74 259.33-7.2 258.4-9.67 258.37-12.65ZM263.18-12.65L263.18-12.65Q263.18-10.47 263.81-8.72 264.43-6.96 265.52-5.73 266.6-4.49 268.03-3.82 269.46-3.15 271.07-3.15L271.07-3.15Q272.75-3.15 274.21-3.81 275.66-4.47 276.73-5.7 277.81-6.93 278.42-8.69 279.03-10.45 279.03-12.65L279.03-12.65Q279.03-14.94 278.42-16.72 277.81-18.51 276.75-19.7 275.68-20.9 274.22-21.51 272.75-22.12 271.07-22.12L271.07-22.12Q269.46-22.12 268.03-21.51 266.6-20.9 265.52-19.7 264.43-18.51 263.81-16.72 263.18-14.94 263.18-12.65ZM306.81-25.44L306.81-19.95 302.17-19.95 302.17-21.51Q301.37-21.51 300.52-21.2 299.68-20.9 298.95-20.28 298.22-19.65 297.67-18.69 297.12-17.72 296.88-16.41L296.88-16.41 296.88-4.2 301.17-4.2 301.17 0 288.62 0 288.62-4.2 292.11-4.2 292.14-21.09 288.62-21.09 288.62-25.29 296.7-25.29 296.7-21.8Q297.14-22.58 297.69-23.25 298.24-23.93 298.91-24.43 299.58-24.93 300.4-25.21 301.22-25.49 302.17-25.49L302.17-25.49Q303.44-25.49 304.57-25.49 305.69-25.49 306.81-25.44L306.81-25.44ZM319.38-33.45L319.38-25.29 325.32-25.29 325.32-21.61 319.34-21.61 319.26-7.01Q319.26-5.52 319.6-4.59 319.95-3.66 320.7-3.31 321.46-2.95 322.41-2.95L322.41-2.95Q323.44-2.95 324.22-3.14 325-3.32 325.93-3.76L325.93-3.76 326.98-0.71Q325.81-0.1 324.51 0.26 323.22 0.61 321.46 0.61L321.46 0.61Q319.8 0.61 318.57 0.21 317.33-0.2 316.49-1.15 315.65-2.1 315.23-3.7 314.82-5.3 314.82-7.69L314.82-7.69 314.89-21.61 310.86-21.61 310.86-25.29 314.94-25.29 314.94-31.35 319.38-33.45ZM339.01-29.39L339.01-25.29 344.87-25.29 344.87-21.61 339.01-21.61 339.01-4.2 342.97-4.2 342.97 0 330.66 0 330.66-4.2 334.47-4.2 334.47-21.61 330.3-21.61 330.3-25.29 334.47-25.29 334.47-29.25Q334.52-31.45 335.11-33.08 335.69-34.72 336.77-35.82 337.84-36.91 339.36-37.45 340.87-37.99 342.72-37.99L342.72-37.99Q344.02-37.99 345.04-37.87 346.07-37.74 346.88-37.54 347.68-37.33 348.3-37.08 348.93-36.84 349.41-36.6L349.41-36.6 348.02-33.35Q347.24-33.76 345.98-34.06 344.73-34.35 343.36-34.35L343.36-34.35Q341.33-34.35 340.17-33.09 339.01-31.84 339.01-29.39L339.01-29.39ZM348.51-12.65L348.51-12.65Q348.54-15.65 349.48-18.12 350.42-20.58 352.1-22.35 353.78-24.12 356.1-25.07 358.42-26.03 361.21-26.03L361.21-26.03Q364.01-26.03 366.35-25.07 368.68-24.12 370.34-22.38 372-20.63 372.92-18.16 373.85-15.7 373.85-12.7L373.85-12.7Q373.85-9.74 372.92-7.26 372-4.79 370.34-3 368.68-1.22 366.35-0.23 364.01 0.76 361.21 0.76L361.21 0.76Q358.35 0.76 356.03-0.22 353.71-1.2 352.05-2.97 350.39-4.74 349.46-7.2 348.54-9.67 348.51-12.65ZM353.32-12.65L353.32-12.65Q353.32-10.47 353.94-8.72 354.57-6.96 355.65-5.73 356.74-4.49 358.17-3.82 359.59-3.15 361.21-3.15L361.21-3.15Q362.89-3.15 364.34-3.81 365.8-4.47 366.87-5.7 367.94-6.93 368.55-8.69 369.17-10.45 369.17-12.65L369.17-12.65Q369.17-14.94 368.55-16.72 367.94-18.51 366.88-19.7 365.82-20.9 364.36-21.51 362.89-22.12 361.21-22.12L361.21-22.12Q359.59-22.12 358.17-21.51 356.74-20.9 355.65-19.7 354.57-18.51 353.94-16.72 353.32-14.94 353.32-12.65ZM378.56-33.79L378.56-37.99 386.77-37.99 386.77-4.2 390.58-4.2 390.58 0 378.56 0 378.56-4.2 382.23-4.2 382.23-33.79 378.56-33.79ZM394.82-21.09L394.82-25.29 403.08-25.29 403.08-4.2 406.88-4.2 406.88 0 394.87 0 394.87-4.2 398.49-4.2 398.49-21.09 394.82-21.09ZM397.63-34.25L397.63-34.25Q397.63-34.89 397.89-35.46 398.14-36.04 398.57-36.46 399-36.89 399.58-37.15 400.17-37.4 400.83-37.4L400.83-37.4Q401.46-37.4 402.04-37.15 402.61-36.89 403.04-36.46 403.47-36.04 403.72-35.46 403.98-34.89 403.98-34.25L403.98-34.25Q403.98-33.59 403.72-33.01 403.47-32.42 403.04-31.97 402.61-31.52 402.04-31.26 401.46-31.01 400.83-31.01L400.83-31.01Q400.17-31.01 399.58-31.26 399-31.52 398.57-31.97 398.14-32.42 397.89-33.01 397.63-33.59 397.63-34.25ZM410.72-12.65L410.72-12.65Q410.74-15.65 411.68-18.12 412.62-20.58 414.31-22.35 415.99-24.12 418.31-25.07 420.63-26.03 423.41-26.03L423.41-26.03Q426.22-26.03 428.55-25.07 430.88-24.12 432.54-22.38 434.2-20.63 435.13-18.16 436.06-15.7 436.06-12.7L436.06-12.7Q436.06-9.74 435.13-7.26 434.2-4.79 432.54-3 430.88-1.22 428.55-0.23 426.22 0.76 423.41 0.76L423.41 0.76Q420.56 0.76 418.24-0.22 415.92-1.2 414.26-2.97 412.6-4.74 411.67-7.2 410.74-9.67 410.72-12.65ZM415.53-12.65L415.53-12.65Q415.53-10.47 416.15-8.72 416.77-6.96 417.86-5.73 418.95-4.49 420.37-3.82 421.8-3.15 423.41-3.15L423.41-3.15Q425.1-3.15 426.55-3.81 428-4.47 429.08-5.7 430.15-6.93 430.76-8.69 431.37-10.45 431.37-12.65L431.37-12.65Q431.37-14.94 430.76-16.72 430.15-18.51 429.09-19.7 428.03-20.9 426.56-21.51 425.1-22.12 423.41-22.12L423.41-22.12Q421.8-22.12 420.37-21.51 418.95-20.9 417.86-19.7 416.77-18.51 416.15-16.72 415.53-14.94 415.53-12.65Z" opacity="1" transform="matrix(1,0,0,1,0,0)" fill="#ffffff" class="undefined-text-1" data-fill-palette-color="secondary" id="text-1"></path></svg></g></svg></g></svg></g></svg></g><g><svg viewBox="0 0 245.65351679999995 256.9434627712299" height="256.9434627712299" width="245.65351679999995"><g><svg xmlns="http://www.w3.org/2000/svg" xmlns:xlink="http://www.w3.org/1999/xlink" version="1.1" x="0" y="0" viewBox="8.899999618530273 6 63.099998474121094 66" enable-background="new 0 0 80 80" xml:space="preserve" height="256.9434627712299" width="245.65351679999995" class="icon-icon-0" data-fill-palette-color="accent" id="icon-0"><g fill="#ffffff" data-fill-palette-color="accent"><path fill="#ffffff" d="M45.8 51l0.4-3.2c3.3-2.5 6.1-7 7.3-12.2l0.2 0.3 2.4-1c0 0 0.9-5.8 0-7-0.7-0.8-1.6-0.5-2.1-0.2 0 0 0 0 0 0L55 27v-3l-1-3v-2l-1-2-4-3-1-2-2-1-2-2-1-2-2-1-1 2-2 1-2 2-3 1-3 3c0 0-1.5 3.6-2 4-0.5 0.4-1.2 3.8-2 4s0 4 0 4l1.2 0.2c0 0.2 0 0.4 0 0.6-0.5-0.3-1.4-0.7-2.1 0.2-0.9 1.2-0.2 7-0.2 7l2.2 1v-1.2c1 5.6 4.2 10.4 7.7 13.1l0.5 3.2C20.6 51.2 8.9 57 8.9 72H9h63v0C72 57.3 60.3 51.2 45.8 51z" data-fill-palette-color="accent"></path></g></svg></g></svg></g></svg></g><defs></defs></svg><rect width="395.52" height="153.8098790422818" fill="none" stroke="none" visibility="hidden"></rect></g></svg></g></svg>